<svg width="71" height="71" viewBox="0 0 71 71" fill="none" xmlns="http://www.w3.org/2000/svg"><path d="M52.668 53.148c0-.096.096-.096.192-.192l.096-.096.192.192c.96.96 1.535 1.919 1.823 2.974.288 1.055.192 2.11-.288 3.262-.864 2.014-2.878 4.03-6.14 5.564-3.166 1.535-7.579 2.59-12.951 2.59C17.94 67.442 3.55 53.052 3.55 35.4S17.748 3.358 35.496 3.358c17.652 0 32.042 14.39 32.042 32.042 0 2.878-.383 5.756-1.151 8.538-.288.864.288 1.823 1.151 2.015.864.288 1.823-.288 2.015-1.151.863-3.07 1.247-6.236 1.247-9.402 0-9.498-3.742-18.324-10.361-25.039C53.724 3.646 44.898 0 35.4 0c-9.498 0-18.324 3.646-25.039 10.361C3.646 17.076 0 25.902 0 35.4c0 9.498 3.646 18.324 10.361 25.039C17.076 67.154 25.902 70.8 35.4 70.8c5.468 0 10.457-1.055 14.486-2.974 3.742-1.823 6.524-4.413 7.675-7.291 1.439-3.454.672-7.003-2.206-9.881l-.192-.192.192-.192s.095 0 .095-.096c1.056-1.055 1.535-2.303 1.535-3.454 0-1.247-.48-2.398-1.535-3.453l-5.084-5.085c-.96-.96-2.11-1.535-3.358-1.535-1.247 0-2.398.576-3.454 1.535l-2.686 2.686h-.096c-.096-.096-.287-.096-.383-.192-.288-.191-.576-.287-.864-.48-2.686-1.726-5.084-3.933-7.483-6.81-1.055-1.248-1.727-2.399-2.302-3.454v-.096l.096-.096c.671-.576 1.247-1.247 1.823-1.823l.767-.767c1.055-1.056 1.535-2.303 1.535-3.454 0-1.247-.48-2.398-1.535-3.454l-2.494-2.494-.864-.863c-.575-.576-1.15-1.152-1.727-1.727-.959-.96-2.11-1.44-3.357-1.44-1.247 0-2.399.48-3.454 1.44l-3.166 3.166c-1.247 1.247-1.919 2.782-2.11 4.508-.192 2.783.575 5.277 1.247 7.004 1.535 4.029 3.741 7.77 7.099 11.8a45.251 45.251 0 0 0 14.486 11.416c2.11 1.055 4.989 2.206 8.25 2.398h.576c2.399.192 4.221-.671 5.756-2.302zm-.671-4.03l-1.823 1.823c-.863.96-1.823 1.344-3.166 1.344h-.384c-2.686-.192-5.18-1.248-7.003-2.111-5.18-2.494-9.69-6.044-13.43-10.457-3.07-3.741-5.181-7.195-6.524-10.84-.864-2.207-1.152-3.934-1.056-5.565.096-.96.48-1.727 1.152-2.494l3.165-3.166c.288-.192.672-.576 1.056-.576.48 0 .863.288 1.055.48.576.48 1.055 1.055 1.63 1.631l.48.48.48.48 2.495 2.494c.383.383.575.767.575 1.15 0 .385-.192.768-.575 1.152l-.384.384-.384.384c-.767.767-1.535 1.535-2.302 2.206-.576.576-.672 1.055-.768 1.535 0 .48.096.767.192.96v.191c.672 1.631 1.63 3.166 2.974 4.893 2.59 3.166 5.276 5.564 8.25 7.483.384.288.768.48 1.152.671.288.192.575.288.863.48 0 0 .096.096.192.096.384.192.767.288 1.055.288.576 0 1.151-.288 1.727-.768l3.166-3.166c.288-.287.672-.575 1.055-.575.384 0 .768.288 1.056.575l5.084 5.085c.384.384.576.767.576 1.151s-.192.768-.576 1.151c-.288.384-.672.768-1.055 1.152z" fill="#121212"/><path d="M16.597 30.028v-.096l-.096.096h.096z" fill="#121212"/></svg>