<svg width="77" height="77" viewBox="0 0 77 77" fill="none" xmlns="http://www.w3.org/2000/svg"><path d="M59.613 59.613V77h1.242C69.757 77 77 69.757 77 60.855v-1.242H59.613zm2.484 14.847V62.097H74.46c-.592 6.545-5.818 11.772-12.363 12.363z" fill="#121212"/><path d="M72.032 55.887c0-7.618-5.31-14.005-12.42-15.694V38.5a6.217 6.217 0 0 0-6.209-6.21H44.71V0H0v54.645a4.973 4.973 0 0 0 4.968 4.968h9.935v12.42H57.13V57.128h14.903v-1.242zM9.245 57.13a4.92 4.92 0 0 0 .69-2.484V37.258a2.486 2.486 0 0 1 2.484-2.484 2.486 2.486 0 0 1 2.484 2.484V57.13H9.245zm8.142 12.42V37.26a4.92 4.92 0 0 0-.69-2.485h23.045V32.29H12.419a4.973 4.973 0 0 0-4.967 4.968v17.387a2.486 2.486 0 0 1-2.484 2.484 2.486 2.486 0 0 1-2.484-2.484V2.484h39.742v32.29h11.177A3.73 3.73 0 0 1 57.13 38.5v1.305a15.87 15.87 0 0 0-1.242-.063c-8.902 0-16.145 7.243-16.145 16.145 0 5.754 3.035 10.8 7.58 13.661H17.388zm37.258-.056c-6.954-.63-12.42-6.49-12.42-13.606a13.6 13.6 0 0 1 3.17-8.736l9.25 9.25v13.092zm1.756-14.848l-9.25-9.25a13.601 13.601 0 0 1 8.736-3.17c7.115 0 12.976 5.466 13.606 12.42H56.4z" fill="#121212"/><path d="M39.742 4.968H32.29v24.838h7.452V4.968zm-2.484 22.355h-2.484V7.452h2.484v19.87zm-14.903 2.483h7.451V9.936h-7.451v19.87zm2.484-17.387h2.484v14.904h-2.484V12.419zM12.42 29.806h7.45V14.903h-7.45v14.903zm2.483-12.419h2.484v9.936h-2.484v-9.936zM4.968 4.968h2.484v2.484H4.968V4.968zm4.967 0h7.452v2.484H9.935V4.968zm0 4.967h7.452v2.484H9.935V9.935zm-4.967 0h2.484v2.484H4.968V9.935zM19.87 37.258h2.485v2.484H19.87v-2.484zm4.969 0H38.5v2.484H24.839v-2.484zm-4.969 4.968h2.485v2.484H19.87v-2.484zm4.969 0H38.5v2.484H24.839v-2.484zm-4.969 4.968h2.485v2.483H19.87v-2.483zm4.969 0H38.5v2.483H24.839v-2.483zm2.484 4.967c-4.11 0-7.452 3.342-7.452 7.452 0 4.11 3.342 7.451 7.452 7.451a7.458 7.458 0 0 0 7.451-7.451c0-4.11-3.342-7.452-7.451-7.452zm0 12.42a4.973 4.973 0 0 1-4.968-4.968 4.973 4.973 0 0 1 4.968-4.968 4.973 4.973 0 0 1 4.967 4.968 4.973 4.973 0 0 1-4.967 4.968z" fill="#121212"/></svg>