<svg width="78" height="78" viewBox="0 0 78 78" fill="none" xmlns="http://www.w3.org/2000/svg"><path d="M52.71 48.598c-.84 0-1.523.682-1.523 1.523v10.512c0 4.2-3.417 7.617-7.617 7.617H27.122c-.841 0-1.523.681-1.523 1.522l-.003 3.03-3.636-3.637a1.524 1.524 0 0 0-1.397-.915h-9.899c-4.2 0-7.617-3.417-7.617-7.617V37.172c0-4.2 3.417-7.617 7.617-7.617h15.387a1.524 1.524 0 0 0 0-3.047H10.664C4.784 26.508 0 31.292 0 37.172v23.46c0 5.881 4.784 10.665 10.664 10.665h9.12l6.256 6.257a1.523 1.523 0 0 0 2.6-1.076l.004-5.181H43.57c5.88 0 10.664-4.784 10.664-10.664V50.12c0-.841-.682-1.523-1.523-1.523z" fill="#121212"/><path d="M55.858 0h-3.856c-12.21 0-22.143 9.933-22.143 22.143 0 12.209 9.933 22.142 22.143 22.142h3.855c1.906 0 3.792-.242 5.62-.72l5.696 5.692a1.523 1.523 0 0 0 2.6-1.078v-8.814a22.355 22.355 0 0 0 5.82-7.175A21.904 21.904 0 0 0 78 22.143C78 9.933 68.067 0 55.858 0zm11.475 37.406a1.524 1.524 0 0 0-.606 1.217v5.88l-3.728-3.726a1.524 1.524 0 0 0-1.525-.379 19.1 19.1 0 0 1-5.616.84h-3.856c-10.53 0-19.096-8.566-19.096-19.095 0-10.53 8.566-19.096 19.096-19.096h3.856c10.529 0 19.095 8.566 19.095 19.096 0 6.052-2.777 11.616-7.62 15.263z" fill="#121212"/><path d="M60.79 16.67c-.22-3.19-2.79-5.76-5.98-5.98a6.4 6.4 0 0 0-4.854 1.718 6.473 6.473 0 0 0-2.05 4.716 1.523 1.523 0 0 0 3.047 0 3.37 3.37 0 0 1 1.082-2.489 3.405 3.405 0 0 1 5.716 2.244 3.388 3.388 0 0 1-2.647 3.565 2.883 2.883 0 0 0-2.271 2.826v3.66a1.523 1.523 0 0 0 3.047 0v-3.538c3.07-.742 5.129-3.55 4.91-6.723zm-5.356 15.21a1.535 1.535 0 0 0-1.078-.447c-.4 0-.793.163-1.077.446a1.535 1.535 0 0 0-.446 1.077c0 .403.163.796.446 1.08a1.54 1.54 0 0 0 1.077.444c.401 0 .794-.161 1.078-.445.283-.285.446-.676.446-1.078 0-.401-.163-.794-.447-1.078zM41.895 47.227H9.75a1.523 1.523 0 0 0 0 3.046h32.145a1.523 1.523 0 1 0 0-3.046zm-5.993 8.531H9.75a1.524 1.524 0 0 0 0 3.047h26.152a1.523 1.523 0 0 0 0-3.047zm-3.91-17.063H9.75a1.524 1.524 0 0 0 0 3.047h22.242a1.523 1.523 0 0 0 0-3.047z" fill="#121212"/></svg>