<svg width="74" height="74" viewBox="0 0 74 74" fill="none" xmlns="http://www.w3.org/2000/svg"><path d="M67.833 0H6.167A6.174 6.174 0 0 0 0 6.167v61.666A6.174 6.174 0 0 0 6.167 74h61.666A6.174 6.174 0 0 0 74 67.833V6.167A6.174 6.174 0 0 0 67.833 0zm3.7 67.833a3.7 3.7 0 0 1-3.7 3.7H6.167a3.7 3.7 0 0 1-3.7-3.7v-55.5h69.066v55.5zm0-57.966H2.467v-3.7a3.7 3.7 0 0 1 3.7-3.7h61.666a3.7 3.7 0 0 1 3.7 3.7v3.7z" fill="#121212"/><path d="M8.633 4.933H7.4a1.233 1.233 0 1 0 0 2.467h1.233a1.233 1.233 0 1 0 0-2.467zm57.967 0H24.667a1.233 1.233 0 1 0 0 2.467H66.6a1.233 1.233 0 1 0 0-2.467zM18.935 58.731c.056.052.117.098.183.137a24.556 24.556 0 0 0 35.784-.011c.061-.036.119-.077.172-.123.04-.057.076-.117.107-.18 8.654-9.389 8.654-23.848 0-33.236l-.005-.003a1.205 1.205 0 0 0-.107-.18 1.105 1.105 0 0 0-.183-.138 24.555 24.555 0 0 0-35.767 0 1.1 1.1 0 0 0-.183.138c-.04.057-.076.117-.107.18-8.654 9.389-8.654 23.848 0 33.236.03.063.066.123.106.18zm24.793 4.35a22.663 22.663 0 0 0 4.2-7.77v-.004a22.573 22.573 0 0 1 4.357 2.682 22.198 22.198 0 0 1-8.557 5.092zm10.259-6.884a25.01 25.01 0 0 0-5.36-3.287 43.968 43.968 0 0 0 1.29-9.743h9.22a22.077 22.077 0 0 1-5.15 13.03zm5.15-15.497h-9.22a43.984 43.984 0 0 0-1.29-9.743 25.017 25.017 0 0 0 5.36-3.285 22.076 22.076 0 0 1 5.15 13.028zm-6.852-14.826a22.572 22.572 0 0 1-4.358 2.681 22.664 22.664 0 0 0-4.2-7.773 22.203 22.203 0 0 1 8.558 5.092zm-14.052-5.968c3.023.792 5.697 4.426 7.382 9.572a26.189 26.189 0 0 1-7.382 1.405V19.906zm0 13.445a28.524 28.524 0 0 0 8.061-1.48 41.753 41.753 0 0 1 1.158 8.829h-9.219v-7.35zm0 9.816h9.22a41.757 41.757 0 0 1-1.159 8.827 28.518 28.518 0 0 0-8.06-1.478v-7.35zm0 9.817c2.516.111 5.002.585 7.382 1.406-1.685 5.145-4.359 8.78-7.382 9.572V52.984zm-16.518 5.001a22.584 22.584 0 0 1 4.358-2.674v-.003a22.663 22.663 0 0 0 4.199 7.77 22.201 22.201 0 0 1-8.557-5.093zm14.052 5.976c-3.023-.792-5.697-4.427-7.382-9.572a26.189 26.189 0 0 1 7.382-1.405v10.977zm0-13.445c-2.745.103-5.46.601-8.061 1.48a41.76 41.76 0 0 1-1.159-8.83h9.22v7.35zm0-9.816h-9.22c.07-2.975.459-5.934 1.159-8.827a28.517 28.517 0 0 0 8.06 1.478V40.7zm0-20.795v10.978a26.19 26.19 0 0 1-7.382-1.406c1.685-5.146 4.359-8.78 7.382-9.572zm-5.495.873a22.662 22.662 0 0 0-4.2 7.777v-.003a22.578 22.578 0 0 1-4.357-2.682 22.202 22.202 0 0 1 8.557-5.092zM20.013 27.67a25.014 25.014 0 0 0 5.36 3.287 43.967 43.967 0 0 0-1.291 9.743h-9.22a22.077 22.077 0 0 1 5.151-13.03zm4.069 15.497a43.984 43.984 0 0 0 1.291 9.743 25.012 25.012 0 0 0-5.36 3.284 22.077 22.077 0 0 1-5.15-13.027h9.219z" fill="#121212"/></svg>